<svg width="283" height="189" viewBox="0 0 283 189" fill="none" xmlns="http://www.w3.org/2000/svg">
<path d="M142.041 4.36148V8.72302H137.679H133.318V37.5576V66.3923H128.714H124.11V70.7538V75.1153H117.568H111.025V79.4769V83.8384H104.338H97.65V88.0546L97.6985 92.3192L93.3369 92.4646L88.9754 92.61L89.0238 96.6323C89.0723 98.8615 88.9269 100.945 88.7331 101.236C88.5392 101.624 85.68 101.769 79.5254 101.672L70.6569 101.527L70.7538 97.02L70.8508 92.5615H66.2469H61.5946V88.2V83.8384H57.2331H52.8715V75.1153V66.3923H48.9946H45.1177V92.3192V118.246H49.4792H53.8408V122.85V127.454H58.2023H62.5638V131.815V136.177H67.0708H71.5777L71.5292 139.957C71.4808 141.992 71.5292 143.979 71.6746 144.318C71.82 144.706 73.1285 144.9 76.0846 144.9H80.2523L80.2038 149.262C80.2038 152.896 80.3008 153.623 80.9308 153.672C81.3669 153.72 83.3054 153.72 85.2438 153.72L88.7331 153.672L88.83 166.853C88.9269 174.122 88.9754 182.07 88.9269 184.542L88.8785 189H97.5531H106.179V185.123V181.246H101.575H96.9715V176.4V171.554L98.6677 171.505C99.5885 171.457 100.8 171.36 101.333 171.312C101.866 171.263 103.175 171.166 104.241 171.118L106.131 171.069L106.276 166.805C106.422 162.007 105.84 162.54 111.752 162.395L114.902 162.346V158.033V153.72L119.506 153.672L124.11 153.575V158.227V162.831H128.714H133.318V175.915V189H141.556H149.795V185.123V181.246H145.675H141.556V177.708C141.556 175.818 141.411 167.628 141.217 159.584L140.926 144.9H145.336H149.795V140.538V136.177H154.398H159.002V129.635V123.092H163.364H167.725V107.342V91.5923H172.572H177.418V96.1961V100.8H181.537H185.656V92.3192V83.8384H176.691H167.725V74.6307V65.423H185.414H203.102V61.3038V57.1846H189.775H176.448V52.3384V47.4923H198.644H220.839V28.2046L220.791 8.96533L216.429 8.72302L212.068 8.48071V4.21609L212.116 -6.10352e-05H177.078H142.041V4.36148ZM159.778 17.2038V21.8076H154.883H149.988V17.2038L150.037 12.5999H154.932H159.826L159.778 17.2038Z" fill="black"/>
<path d="M0.387693 154.932C0.193847 155.077 0.0484619 155.852 0.0484619 156.628V157.985H35.4739H70.8508L70.7054 156.385L70.56 154.835L35.6192 154.689C16.4285 154.641 0.533078 154.738 0.387693 154.932Z" fill="black"/>
<path d="M159.972 156.288C159.972 157.306 160.214 157.985 160.602 158.033C160.892 158.033 188.516 158.082 221.906 158.13L282.579 158.227V156.385V154.592H221.276H159.972V156.288Z" fill="black"/>
<path d="M243.81 169.325V171.021L249.868 171.166L255.926 171.312V169.47V167.677H249.868H243.81V169.325Z" fill="black"/>
<path d="M26.7024 173.831V175.915H35.6678H44.6332V173.977V172.038L37.5093 171.99C33.5355 171.941 29.5132 171.893 28.5439 171.845L26.7024 171.748V173.831Z" fill="black"/>
<path d="M182.264 182.942C182.264 184.542 182.361 184.638 183.96 184.638C185.559 184.638 185.656 184.542 185.656 182.942C185.656 181.343 185.559 181.246 183.96 181.246C182.361 181.246 182.264 181.343 182.264 182.942Z" fill="black"/>
<path d="M0.145385 186.916L0.290769 188.758L8.91693 188.903L17.4946 189V187.062V185.123H8.72308H0L0.145385 186.916Z" fill="black"/>
<path d="M65.8592 185.462L62.0792 185.656V187.304V189H66.4408H70.8023V187.062C70.8023 185.802 70.6085 185.172 70.2208 185.22C69.8815 185.268 67.8946 185.414 65.8592 185.462Z" fill="black"/>
<path d="M212.795 187.304V189H221.179H229.562V187.304V185.608H221.179H212.795V187.304Z" fill="black"/>
</svg>
