<svg width="210" height="210" viewBox="0 0 210 210" fill="none" xmlns="http://www.w3.org/2000/svg">
<circle cx="105" cy="105" r="105" fill="url(#paint0_linear_30_268)"/>
<circle cx="105" cy="105" r="90" fill="#FFD6D6"/>
<path d="M37.6 117.32C36.1707 117.32 34.9227 117.043 33.856 116.488C32.8107 115.912 32 115.112 31.424 114.088C30.848 113.043 30.56 111.827 30.56 110.44V100.2C30.56 98.792 30.848 97.576 31.424 96.552C32 95.528 32.8107 94.7387 33.856 94.184C34.9227 93.608 36.1707 93.32 37.6 93.32C39.0507 93.32 40.2987 93.608 41.344 94.184C42.3893 94.7387 43.2 95.528 43.776 96.552C44.352 97.576 44.64 98.792 44.64 100.2V110.44C44.64 111.827 44.352 113.043 43.776 114.088C43.2 115.112 42.3787 115.912 41.312 116.488C40.2667 117.043 39.0293 117.32 37.6 117.32ZM37.6 114.856C38.88 114.856 39.904 114.451 40.672 113.64C41.4613 112.808 41.856 111.741 41.856 110.44V100.2C41.856 98.8987 41.4613 97.8427 40.672 97.032C39.904 96.2 38.88 95.784 37.6 95.784C36.32 95.784 35.2853 96.2 34.496 97.032C33.728 97.8427 33.344 98.8987 33.344 100.2V110.44C33.344 111.741 33.728 112.808 34.496 113.64C35.2853 114.451 36.32 114.856 37.6 114.856ZM37.6 107.208C37.024 107.208 36.5547 107.027 36.192 106.664C35.8507 106.301 35.68 105.821 35.68 105.224C35.68 104.648 35.8507 104.189 36.192 103.848C36.5547 103.485 37.024 103.304 37.6 103.304C38.176 103.304 38.6347 103.485 38.976 103.848C39.3387 104.189 39.52 104.648 39.52 105.224C39.52 105.821 39.3387 106.301 38.976 106.664C38.6347 107.027 38.176 107.208 37.6 107.208ZM56.7875 117.32C55.3582 117.32 54.1102 117.043 53.0435 116.488C51.9982 115.912 51.1875 115.112 50.6115 114.088C50.0355 113.043 49.7475 111.827 49.7475 110.44V100.2C49.7475 98.792 50.0355 97.576 50.6115 96.552C51.1875 95.528 51.9982 94.7387 53.0435 94.184C54.1102 93.608 55.3582 93.32 56.7875 93.32C58.2382 93.32 59.4862 93.608 60.5315 94.184C61.5768 94.7387 62.3875 95.528 62.9635 96.552C63.5395 97.576 63.8275 98.792 63.8275 100.2V110.44C63.8275 111.827 63.5395 113.043 62.9635 114.088C62.3875 115.112 61.5662 115.912 60.4995 116.488C59.4542 117.043 58.2168 117.32 56.7875 117.32ZM56.7875 114.856C58.0675 114.856 59.0915 114.451 59.8595 113.64C60.6488 112.808 61.0435 111.741 61.0435 110.44V100.2C61.0435 98.8987 60.6488 97.8427 59.8595 97.032C59.0915 96.2 58.0675 95.784 56.7875 95.784C55.5075 95.784 54.4728 96.2 53.6835 97.032C52.9155 97.8427 52.5315 98.8987 52.5315 100.2V110.44C52.5315 111.741 52.9155 112.808 53.6835 113.64C54.4728 114.451 55.5075 114.856 56.7875 114.856ZM56.7875 107.208C56.2115 107.208 55.7422 107.027 55.3795 106.664C55.0382 106.301 54.8675 105.821 54.8675 105.224C54.8675 104.648 55.0382 104.189 55.3795 103.848C55.7422 103.485 56.2115 103.304 56.7875 103.304C57.3635 103.304 57.8222 103.485 58.1635 103.848C58.5262 104.189 58.7075 104.648 58.7075 105.224C58.7075 105.821 58.5262 106.301 58.1635 106.664C57.8222 107.027 57.3635 107.208 56.7875 107.208ZM75.975 103.88C75.1857 103.88 74.5457 103.667 74.055 103.24C73.5643 102.792 73.319 102.205 73.319 101.48C73.319 100.755 73.5643 100.179 74.055 99.752C74.5457 99.304 75.1857 99.08 75.975 99.08C76.7857 99.08 77.4257 99.304 77.895 99.752C78.3857 100.179 78.631 100.755 78.631 101.48C78.631 102.205 78.3857 102.792 77.895 103.24C77.4257 103.667 76.7857 103.88 75.975 103.88ZM75.975 117.32C75.1857 117.32 74.5457 117.107 74.055 116.68C73.5643 116.232 73.319 115.645 73.319 114.92C73.319 114.195 73.5643 113.619 74.055 113.192C74.5457 112.744 75.1857 112.52 75.975 112.52C76.7857 112.52 77.4257 112.744 77.895 113.192C78.3857 113.619 78.631 114.195 78.631 114.92C78.631 115.645 78.3857 116.232 77.895 116.68C77.4257 117.107 76.7857 117.32 75.975 117.32ZM95.1625 117.32C93.7332 117.32 92.4852 117.043 91.4185 116.488C90.3732 115.912 89.5625 115.112 88.9865 114.088C88.4105 113.043 88.1225 111.827 88.1225 110.44V100.2C88.1225 98.792 88.4105 97.576 88.9865 96.552C89.5625 95.528 90.3732 94.7387 91.4185 94.184C92.4852 93.608 93.7332 93.32 95.1625 93.32C96.6132 93.32 97.8612 93.608 98.9065 94.184C99.9518 94.7387 100.763 95.528 101.339 96.552C101.915 97.576 102.203 98.792 102.203 100.2V110.44C102.203 111.827 101.915 113.043 101.339 114.088C100.763 115.112 99.9412 115.912 98.8745 116.488C97.8292 117.043 96.5918 117.32 95.1625 117.32ZM95.1625 114.856C96.4425 114.856 97.4665 114.451 98.2345 113.64C99.0238 112.808 99.4185 111.741 99.4185 110.44V100.2C99.4185 98.8987 99.0238 97.8427 98.2345 97.032C97.4665 96.2 96.4425 95.784 95.1625 95.784C93.8825 95.784 92.8478 96.2 92.0585 97.032C91.2905 97.8427 90.9065 98.8987 90.9065 100.2V110.44C90.9065 111.741 91.2905 112.808 92.0585 113.64C92.8478 114.451 93.8825 114.856 95.1625 114.856ZM95.1625 107.208C94.5865 107.208 94.1172 107.027 93.7545 106.664C93.4132 106.301 93.2425 105.821 93.2425 105.224C93.2425 104.648 93.4132 104.189 93.7545 103.848C94.1172 103.485 94.5865 103.304 95.1625 103.304C95.7385 103.304 96.1972 103.485 96.5385 103.848C96.9012 104.189 97.0825 104.648 97.0825 105.224C97.0825 105.821 96.9012 106.301 96.5385 106.664C96.1972 107.027 95.7385 107.208 95.1625 107.208ZM114.35 117.32C112.921 117.32 111.673 117.043 110.606 116.488C109.561 115.912 108.75 115.112 108.174 114.088C107.598 113.043 107.31 111.827 107.31 110.44V100.2C107.31 98.792 107.598 97.576 108.174 96.552C108.75 95.528 109.561 94.7387 110.606 94.184C111.673 93.608 112.921 93.32 114.35 93.32C115.801 93.32 117.049 93.608 118.094 94.184C119.139 94.7387 119.95 95.528 120.526 96.552C121.102 97.576 121.39 98.792 121.39 100.2V110.44C121.39 111.827 121.102 113.043 120.526 114.088C119.95 115.112 119.129 115.912 118.062 116.488C117.017 117.043 115.779 117.32 114.35 117.32ZM114.35 114.856C115.63 114.856 116.654 114.451 117.422 113.64C118.211 112.808 118.606 111.741 118.606 110.44V100.2C118.606 98.8987 118.211 97.8427 117.422 97.032C116.654 96.2 115.63 95.784 114.35 95.784C113.07 95.784 112.035 96.2 111.246 97.032C110.478 97.8427 110.094 98.8987 110.094 100.2V110.44C110.094 111.741 110.478 112.808 111.246 113.64C112.035 114.451 113.07 114.856 114.35 114.856ZM114.35 107.208C113.774 107.208 113.305 107.027 112.942 106.664C112.601 106.301 112.43 105.821 112.43 105.224C112.43 104.648 112.601 104.189 112.942 103.848C113.305 103.485 113.774 103.304 114.35 103.304C114.926 103.304 115.385 103.485 115.726 103.848C116.089 104.189 116.27 104.648 116.27 105.224C116.27 105.821 116.089 106.301 115.726 106.664C115.385 107.027 114.926 107.208 114.35 107.208ZM133.538 103.88C132.748 103.88 132.108 103.667 131.618 103.24C131.127 102.792 130.882 102.205 130.882 101.48C130.882 100.755 131.127 100.179 131.618 99.752C132.108 99.304 132.748 99.08 133.538 99.08C134.348 99.08 134.988 99.304 135.458 99.752C135.948 100.179 136.194 100.755 136.194 101.48C136.194 102.205 135.948 102.792 135.458 103.24C134.988 103.667 134.348 103.88 133.538 103.88ZM133.538 117.32C132.748 117.32 132.108 117.107 131.618 116.68C131.127 116.232 130.882 115.645 130.882 114.92C130.882 114.195 131.127 113.619 131.618 113.192C132.108 112.744 132.748 112.52 133.538 112.52C134.348 112.52 134.988 112.744 135.458 113.192C135.948 113.619 136.194 114.195 136.194 114.92C136.194 115.645 135.948 116.232 135.458 116.68C134.988 117.107 134.348 117.32 133.538 117.32ZM152.725 117.32C151.296 117.32 150.048 117.043 148.981 116.488C147.936 115.912 147.125 115.112 146.549 114.088C145.973 113.043 145.685 111.827 145.685 110.44V100.2C145.685 98.792 145.973 97.576 146.549 96.552C147.125 95.528 147.936 94.7387 148.981 94.184C150.048 93.608 151.296 93.32 152.725 93.32C154.176 93.32 155.424 93.608 156.469 94.184C157.514 94.7387 158.325 95.528 158.901 96.552C159.477 97.576 159.765 98.792 159.765 100.2V110.44C159.765 111.827 159.477 113.043 158.901 114.088C158.325 115.112 157.504 115.912 156.437 116.488C155.392 117.043 154.154 117.32 152.725 117.32ZM152.725 114.856C154.005 114.856 155.029 114.451 155.797 113.64C156.586 112.808 156.981 111.741 156.981 110.44V100.2C156.981 98.8987 156.586 97.8427 155.797 97.032C155.029 96.2 154.005 95.784 152.725 95.784C151.445 95.784 150.41 96.2 149.621 97.032C148.853 97.8427 148.469 98.8987 148.469 100.2V110.44C148.469 111.741 148.853 112.808 149.621 113.64C150.41 114.451 151.445 114.856 152.725 114.856ZM152.725 107.208C152.149 107.208 151.68 107.027 151.317 106.664C150.976 106.301 150.805 105.821 150.805 105.224C150.805 104.648 150.976 104.189 151.317 103.848C151.68 103.485 152.149 103.304 152.725 103.304C153.301 103.304 153.76 103.485 154.101 103.848C154.464 104.189 154.645 104.648 154.645 105.224C154.645 105.821 154.464 106.301 154.101 106.664C153.76 107.027 153.301 107.208 152.725 107.208ZM171.913 117.32C170.483 117.32 169.235 117.043 168.169 116.488C167.123 115.912 166.313 115.112 165.737 114.088C165.161 113.043 164.873 111.827 164.873 110.44V100.2C164.873 98.792 165.161 97.576 165.737 96.552C166.313 95.528 167.123 94.7387 168.169 94.184C169.235 93.608 170.483 93.32 171.913 93.32C173.363 93.32 174.611 93.608 175.657 94.184C176.702 94.7387 177.513 95.528 178.089 96.552C178.665 97.576 178.953 98.792 178.953 100.2V110.44C178.953 111.827 178.665 113.043 178.089 114.088C177.513 115.112 176.691 115.912 175.625 116.488C174.579 117.043 173.342 117.32 171.913 117.32ZM171.913 114.856C173.193 114.856 174.217 114.451 174.985 113.64C175.774 112.808 176.169 111.741 176.169 110.44V100.2C176.169 98.8987 175.774 97.8427 174.985 97.032C174.217 96.2 173.193 95.784 171.913 95.784C170.633 95.784 169.598 96.2 168.809 97.032C168.041 97.8427 167.657 98.8987 167.657 100.2V110.44C167.657 111.741 168.041 112.808 168.809 113.64C169.598 114.451 170.633 114.856 171.913 114.856ZM171.913 107.208C171.337 107.208 170.867 107.027 170.505 106.664C170.163 106.301 169.993 105.821 169.993 105.224C169.993 104.648 170.163 104.189 170.505 103.848C170.867 103.485 171.337 103.304 171.913 103.304C172.489 103.304 172.947 103.485 173.289 103.848C173.651 104.189 173.833 104.648 173.833 105.224C173.833 105.821 173.651 106.301 173.289 106.664C172.947 107.027 172.489 107.208 171.913 107.208Z" fill="#540A00"/>
<defs>
<linearGradient id="paint0_linear_30_268" x1="105" y1="0" x2="105" y2="210" gradientUnits="userSpaceOnUse">
<stop stop-color="#FF9040"/>
<stop offset="1" stop-color="#FF0000"/>
</linearGradient>
</defs>
</svg>
